<mxfile host="app.diagrams.net" modified="2023-09-28T13:14:19.376Z" agent="Mozilla/5.0 (Windows NT 10.0; Win64; x64) AppleWebKit/537.36 (KHTML, like Gecko) Chrome/117.0.0.0 Safari/537.36" etag="fDd4kl_EaChhSCfIhbYy" version="22.0.0" type="device">
  <diagram id="C5RBs43oDa-KdzZeNtuy" name="Page-1">
    <mxGraphModel dx="880" dy="-713" grid="1" gridSize="10" guides="1" tooltips="1" connect="1" arrows="1" fold="1" page="1" pageScale="1" pageWidth="827" pageHeight="1169" math="0" shadow="0">
      <root>
        <mxCell id="WIyWlLk6GJQsqaUBKTNV-0" />
        <mxCell id="WIyWlLk6GJQsqaUBKTNV-1" parent="WIyWlLk6GJQsqaUBKTNV-0" />
        <mxCell id="nY_uiTRwyGMx2RZcLAmJ-1" value="User&lt;br&gt;&amp;lt;&amp;lt;interface&amp;gt;&amp;gt;" style="swimlane;fontStyle=1;align=center;verticalAlign=top;childLayout=stackLayout;horizontal=1;startSize=40;horizontalStack=0;resizeParent=1;resizeParentMax=0;resizeLast=0;collapsible=1;marginBottom=0;whiteSpace=wrap;html=1;" parent="WIyWlLk6GJQsqaUBKTNV-1" vertex="1">
          <mxGeometry x="545" y="1250" width="170" height="100" as="geometry" />
        </mxCell>
        <mxCell id="nY_uiTRwyGMx2RZcLAmJ-3" value="" style="line;strokeWidth=1;fillColor=none;align=left;verticalAlign=middle;spacingTop=-1;spacingLeft=3;spacingRight=3;rotatable=0;labelPosition=right;points=[];portConstraint=eastwest;strokeColor=inherit;" parent="nY_uiTRwyGMx2RZcLAmJ-1" vertex="1">
          <mxGeometry y="40" width="170" height="8" as="geometry" />
        </mxCell>
        <mxCell id="nY_uiTRwyGMx2RZcLAmJ-4" value="+addUser() : void&lt;br&gt;+editUser() : void&lt;br&gt;+deleteUser() : void" style="text;strokeColor=none;fillColor=none;align=left;verticalAlign=top;spacingLeft=4;spacingRight=4;overflow=hidden;rotatable=0;points=[[0,0.5],[1,0.5]];portConstraint=eastwest;whiteSpace=wrap;html=1;" parent="nY_uiTRwyGMx2RZcLAmJ-1" vertex="1">
          <mxGeometry y="48" width="170" height="52" as="geometry" />
        </mxCell>
        <mxCell id="nY_uiTRwyGMx2RZcLAmJ-41" value="Purchase" style="swimlane;fontStyle=1;align=center;verticalAlign=top;childLayout=stackLayout;horizontal=1;startSize=40;horizontalStack=0;resizeParent=1;resizeParentMax=0;resizeLast=0;collapsible=1;marginBottom=0;whiteSpace=wrap;html=1;" parent="WIyWlLk6GJQsqaUBKTNV-1" vertex="1">
          <mxGeometry x="610" y="1440" width="170" height="210" as="geometry" />
        </mxCell>
        <mxCell id="nY_uiTRwyGMx2RZcLAmJ-42" value="- purchaseID : String&lt;br&gt;- Description : String&lt;br&gt;- DateAndTime : Date &amp;amp; Time&lt;br&gt;- Quantity :int&lt;br&gt;- SupplierID ; String&lt;br&gt;- Amount : Double" style="text;strokeColor=none;fillColor=none;align=left;verticalAlign=top;spacingLeft=4;spacingRight=4;overflow=hidden;rotatable=0;points=[[0,0.5],[1,0.5]];portConstraint=eastwest;whiteSpace=wrap;html=1;" parent="nY_uiTRwyGMx2RZcLAmJ-41" vertex="1">
          <mxGeometry y="40" width="170" height="100" as="geometry" />
        </mxCell>
        <mxCell id="nY_uiTRwyGMx2RZcLAmJ-43" value="" style="line;strokeWidth=1;fillColor=none;align=left;verticalAlign=middle;spacingTop=-1;spacingLeft=3;spacingRight=3;rotatable=0;labelPosition=right;points=[];portConstraint=eastwest;strokeColor=inherit;" parent="nY_uiTRwyGMx2RZcLAmJ-41" vertex="1">
          <mxGeometry y="140" width="170" height="40" as="geometry" />
        </mxCell>
        <mxCell id="nOhA6pioe5P1SblprpBj-4" value="+generateInvoice() : void" style="text;html=1;align=center;verticalAlign=middle;resizable=0;points=[];autosize=1;strokeColor=none;fillColor=none;" parent="nY_uiTRwyGMx2RZcLAmJ-41" vertex="1">
          <mxGeometry y="180" width="170" height="30" as="geometry" />
        </mxCell>
        <mxCell id="nY_uiTRwyGMx2RZcLAmJ-58" value="" style="edgeStyle=orthogonalEdgeStyle;orthogonalLoop=1;jettySize=auto;html=1;entryX=0;entryY=0.5;entryDx=0;entryDy=0;endArrow=diamond;endFill=1;rounded=0;strokeWidth=2;" parent="WIyWlLk6GJQsqaUBKTNV-1" source="nY_uiTRwyGMx2RZcLAmJ-50" target="nY_uiTRwyGMx2RZcLAmJ-55" edge="1">
          <mxGeometry relative="1" as="geometry" />
        </mxCell>
        <mxCell id="nY_uiTRwyGMx2RZcLAmJ-50" value="Medicine" style="swimlane;fontStyle=1;align=center;verticalAlign=top;childLayout=stackLayout;horizontal=1;startSize=40;horizontalStack=0;resizeParent=1;resizeParentMax=0;resizeLast=0;collapsible=1;marginBottom=0;whiteSpace=wrap;html=1;" parent="WIyWlLk6GJQsqaUBKTNV-1" vertex="1">
          <mxGeometry x="145" y="1800" width="170" height="220" as="geometry">
            <mxRectangle x="190" y="1670" width="90" height="40" as="alternateBounds" />
          </mxGeometry>
        </mxCell>
        <mxCell id="nY_uiTRwyGMx2RZcLAmJ-51" value="-medicineID: String&lt;br&gt;-medicineName : String&lt;br&gt;-quantity : int&lt;br&gt;-manufacturer : String&lt;br&gt;-expireDate :Date&lt;br&gt;-price : Double" style="text;strokeColor=none;fillColor=none;align=left;verticalAlign=top;spacingLeft=4;spacingRight=4;overflow=hidden;rotatable=0;points=[[0,0.5],[1,0.5]];portConstraint=eastwest;whiteSpace=wrap;html=1;" parent="nY_uiTRwyGMx2RZcLAmJ-50" vertex="1">
          <mxGeometry y="40" width="170" height="100" as="geometry" />
        </mxCell>
        <mxCell id="nY_uiTRwyGMx2RZcLAmJ-52" value="" style="line;strokeWidth=1;fillColor=none;align=left;verticalAlign=middle;spacingTop=-1;spacingLeft=3;spacingRight=3;rotatable=0;labelPosition=right;points=[];portConstraint=eastwest;strokeColor=inherit;" parent="nY_uiTRwyGMx2RZcLAmJ-50" vertex="1">
          <mxGeometry y="140" width="170" height="8" as="geometry" />
        </mxCell>
        <mxCell id="nY_uiTRwyGMx2RZcLAmJ-53" value="+ addMedicine(): void&lt;br&gt;+ editMedicine(): void&lt;br&gt;+ deleteMedicine(): void&lt;br&gt;+ viewMedicine(): void" style="text;strokeColor=none;fillColor=none;align=left;verticalAlign=top;spacingLeft=4;spacingRight=4;overflow=hidden;rotatable=0;points=[[0,0.5],[1,0.5]];portConstraint=eastwest;whiteSpace=wrap;html=1;" parent="nY_uiTRwyGMx2RZcLAmJ-50" vertex="1">
          <mxGeometry y="148" width="170" height="72" as="geometry" />
        </mxCell>
        <mxCell id="nY_uiTRwyGMx2RZcLAmJ-54" value="Supplier" style="swimlane;fontStyle=1;align=center;verticalAlign=top;childLayout=stackLayout;horizontal=1;startSize=40;horizontalStack=0;resizeParent=1;resizeParentMax=0;resizeLast=0;collapsible=1;marginBottom=0;whiteSpace=wrap;html=1;" parent="WIyWlLk6GJQsqaUBKTNV-1" vertex="1">
          <mxGeometry x="430" y="1800" width="170" height="200" as="geometry" />
        </mxCell>
        <mxCell id="nY_uiTRwyGMx2RZcLAmJ-55" value="-supplierID: String&lt;br&gt;-supplierName : String&lt;br&gt;-address : String&lt;br&gt;-contactNumber : String&lt;br&gt;-email : String" style="text;strokeColor=none;fillColor=none;align=left;verticalAlign=top;spacingLeft=4;spacingRight=4;overflow=hidden;rotatable=0;points=[[0,0.5],[1,0.5]];portConstraint=eastwest;whiteSpace=wrap;html=1;" parent="nY_uiTRwyGMx2RZcLAmJ-54" vertex="1">
          <mxGeometry y="40" width="170" height="80" as="geometry" />
        </mxCell>
        <mxCell id="nY_uiTRwyGMx2RZcLAmJ-56" value="" style="line;strokeWidth=1;fillColor=none;align=left;verticalAlign=middle;spacingTop=-1;spacingLeft=3;spacingRight=3;rotatable=0;labelPosition=right;points=[];portConstraint=eastwest;strokeColor=inherit;" parent="nY_uiTRwyGMx2RZcLAmJ-54" vertex="1">
          <mxGeometry y="120" width="170" height="8" as="geometry" />
        </mxCell>
        <mxCell id="nY_uiTRwyGMx2RZcLAmJ-57" value="+ addSupplier(): void&lt;br&gt;+ editSupplier(): void&lt;br&gt;+ deleteSupplier(): void&lt;br&gt;+ viewSupplier(): void" style="text;strokeColor=none;fillColor=none;align=left;verticalAlign=top;spacingLeft=4;spacingRight=4;overflow=hidden;rotatable=0;points=[[0,0.5],[1,0.5]];portConstraint=eastwest;whiteSpace=wrap;html=1;" parent="nY_uiTRwyGMx2RZcLAmJ-54" vertex="1">
          <mxGeometry y="128" width="170" height="72" as="geometry" />
        </mxCell>
        <mxCell id="nY_uiTRwyGMx2RZcLAmJ-59" value="PurchaseSupplier" style="swimlane;fontStyle=1;align=center;verticalAlign=top;childLayout=stackLayout;horizontal=1;startSize=40;horizontalStack=0;resizeParent=1;resizeParentMax=0;resizeLast=0;collapsible=1;marginBottom=0;whiteSpace=wrap;html=1;" parent="WIyWlLk6GJQsqaUBKTNV-1" vertex="1">
          <mxGeometry x="890" y="1230" width="290" height="210" as="geometry" />
        </mxCell>
        <mxCell id="nY_uiTRwyGMx2RZcLAmJ-60" value="- supplierID : String&amp;nbsp;&lt;br&gt;- supplierName :String&lt;br&gt;- companyRegistrationNumber : String&lt;br&gt;- phoneNumber : String&lt;br&gt;- address : String" style="text;strokeColor=none;fillColor=none;align=left;verticalAlign=top;spacingLeft=4;spacingRight=4;overflow=hidden;rotatable=0;points=[[0,0.5],[1,0.5]];portConstraint=eastwest;whiteSpace=wrap;html=1;" parent="nY_uiTRwyGMx2RZcLAmJ-59" vertex="1">
          <mxGeometry y="40" width="290" height="90" as="geometry" />
        </mxCell>
        <mxCell id="nY_uiTRwyGMx2RZcLAmJ-61" value="" style="line;strokeWidth=1;fillColor=none;align=left;verticalAlign=middle;spacingTop=-1;spacingLeft=3;spacingRight=3;rotatable=0;labelPosition=right;points=[];portConstraint=eastwest;strokeColor=inherit;" parent="nY_uiTRwyGMx2RZcLAmJ-59" vertex="1">
          <mxGeometry y="130" width="290" height="50" as="geometry" />
        </mxCell>
        <mxCell id="nOhA6pioe5P1SblprpBj-1" value="+addSuppler() : void&lt;br&gt;" style="text;strokeColor=none;fillColor=none;align=left;verticalAlign=top;spacingLeft=4;spacingRight=4;overflow=hidden;rotatable=0;points=[[0,0.5],[1,0.5]];portConstraint=eastwest;whiteSpace=wrap;html=1;" parent="nY_uiTRwyGMx2RZcLAmJ-59" vertex="1">
          <mxGeometry y="180" width="290" height="30" as="geometry" />
        </mxCell>
        <mxCell id="nY_uiTRwyGMx2RZcLAmJ-68" style="rounded=0;orthogonalLoop=1;jettySize=auto;html=1;endArrow=none;endFill=0;strokeWidth=2;entryX=0.5;entryY=1;entryDx=0;entryDy=0;entryPerimeter=0;startArrow=diamond;startFill=1;" parent="WIyWlLk6GJQsqaUBKTNV-1" source="nY_uiTRwyGMx2RZcLAmJ-63" target="nOhA6pioe5P1SblprpBj-1" edge="1">
          <mxGeometry relative="1" as="geometry">
            <mxPoint x="1040" y="1510" as="targetPoint" />
          </mxGeometry>
        </mxCell>
        <mxCell id="nY_uiTRwyGMx2RZcLAmJ-63" value="PurchaseMedicine" style="swimlane;fontStyle=1;align=center;verticalAlign=top;childLayout=stackLayout;horizontal=1;startSize=40;horizontalStack=0;resizeParent=1;resizeParentMax=0;resizeLast=0;collapsible=1;marginBottom=0;whiteSpace=wrap;html=1;" parent="WIyWlLk6GJQsqaUBKTNV-1" vertex="1">
          <mxGeometry x="890" y="1610" width="290" height="170" as="geometry" />
        </mxCell>
        <mxCell id="nY_uiTRwyGMx2RZcLAmJ-64" value="- medicineID : String&lt;br&gt;- medicineName : String&lt;br&gt;-quantity : int" style="text;strokeColor=none;fillColor=none;align=left;verticalAlign=top;spacingLeft=4;spacingRight=4;overflow=hidden;rotatable=0;points=[[0,0.5],[1,0.5]];portConstraint=eastwest;whiteSpace=wrap;html=1;" parent="nY_uiTRwyGMx2RZcLAmJ-63" vertex="1">
          <mxGeometry y="40" width="290" height="50" as="geometry" />
        </mxCell>
        <mxCell id="nY_uiTRwyGMx2RZcLAmJ-65" value="" style="line;strokeWidth=1;fillColor=none;align=left;verticalAlign=middle;spacingTop=-1;spacingLeft=3;spacingRight=3;rotatable=0;labelPosition=right;points=[];portConstraint=eastwest;strokeColor=inherit;" parent="nY_uiTRwyGMx2RZcLAmJ-63" vertex="1">
          <mxGeometry y="90" width="290" height="50" as="geometry" />
        </mxCell>
        <mxCell id="nOhA6pioe5P1SblprpBj-3" value="+purchaseMedicine() : void" style="text;html=1;align=left;verticalAlign=middle;resizable=0;points=[];autosize=1;strokeColor=none;fillColor=none;" parent="nY_uiTRwyGMx2RZcLAmJ-63" vertex="1">
          <mxGeometry y="140" width="290" height="30" as="geometry" />
        </mxCell>
        <mxCell id="nY_uiTRwyGMx2RZcLAmJ-69" value="Sales" style="swimlane;fontStyle=1;align=center;verticalAlign=top;childLayout=stackLayout;horizontal=1;startSize=40;horizontalStack=0;resizeParent=1;resizeParentMax=0;resizeLast=0;collapsible=1;marginBottom=0;whiteSpace=wrap;html=1;" parent="WIyWlLk6GJQsqaUBKTNV-1" vertex="1">
          <mxGeometry x="657" y="1730" width="170" height="260" as="geometry" />
        </mxCell>
        <mxCell id="nY_uiTRwyGMx2RZcLAmJ-70" value="- salesID : String&lt;br&gt;- name : String&lt;br&gt;- type : String&lt;br&gt;-quantity : int&lt;br&gt;- dateAndTime : Date &amp;amp; Time&lt;br&gt;- amount : Double" style="text;strokeColor=none;fillColor=none;align=left;verticalAlign=top;spacingLeft=4;spacingRight=4;overflow=hidden;rotatable=0;points=[[0,0.5],[1,0.5]];portConstraint=eastwest;whiteSpace=wrap;html=1;" parent="nY_uiTRwyGMx2RZcLAmJ-69" vertex="1">
          <mxGeometry y="40" width="170" height="100" as="geometry" />
        </mxCell>
        <mxCell id="nY_uiTRwyGMx2RZcLAmJ-71" value="" style="line;strokeWidth=1;fillColor=none;align=left;verticalAlign=middle;spacingTop=-1;spacingLeft=3;spacingRight=3;rotatable=0;labelPosition=right;points=[];portConstraint=eastwest;strokeColor=inherit;" parent="nY_uiTRwyGMx2RZcLAmJ-69" vertex="1">
          <mxGeometry y="140" width="170" height="8" as="geometry" />
        </mxCell>
        <mxCell id="nY_uiTRwyGMx2RZcLAmJ-72" value="+addSales() : void&lt;br&gt;+reportGenerate() : void&lt;br&gt;+loadMedicine() : void&lt;br&gt;+changeQuantity() : void&lt;br&gt;+calculateTotal() : void&lt;br&gt;+displayTotal() : void&lt;br&gt;+payment() : void" style="text;strokeColor=none;fillColor=none;align=left;verticalAlign=top;spacingLeft=4;spacingRight=4;overflow=hidden;rotatable=0;points=[[0,0.5],[1,0.5]];portConstraint=eastwest;whiteSpace=wrap;html=1;" parent="nY_uiTRwyGMx2RZcLAmJ-69" vertex="1">
          <mxGeometry y="148" width="170" height="112" as="geometry" />
        </mxCell>
        <mxCell id="nY_uiTRwyGMx2RZcLAmJ-73" value="Transaction" style="swimlane;fontStyle=1;align=center;verticalAlign=top;childLayout=stackLayout;horizontal=1;startSize=40;horizontalStack=0;resizeParent=1;resizeParentMax=0;resizeLast=0;collapsible=1;marginBottom=0;whiteSpace=wrap;html=1;" parent="WIyWlLk6GJQsqaUBKTNV-1" vertex="1">
          <mxGeometry x="1071" y="1840" width="170" height="160" as="geometry" />
        </mxCell>
        <mxCell id="nY_uiTRwyGMx2RZcLAmJ-74" value="- transactionID : String&lt;br&gt;-date : Date&lt;br&gt;- transactionAmount : Double&lt;br&gt;-type : String" style="text;strokeColor=none;fillColor=none;align=left;verticalAlign=top;spacingLeft=4;spacingRight=4;overflow=hidden;rotatable=0;points=[[0,0.5],[1,0.5]];portConstraint=eastwest;whiteSpace=wrap;html=1;" parent="nY_uiTRwyGMx2RZcLAmJ-73" vertex="1">
          <mxGeometry y="40" width="170" height="70" as="geometry" />
        </mxCell>
        <mxCell id="nY_uiTRwyGMx2RZcLAmJ-75" value="" style="line;strokeWidth=1;fillColor=none;align=left;verticalAlign=middle;spacingTop=-1;spacingLeft=3;spacingRight=3;rotatable=0;labelPosition=right;points=[];portConstraint=eastwest;strokeColor=inherit;" parent="nY_uiTRwyGMx2RZcLAmJ-73" vertex="1">
          <mxGeometry y="110" width="170" height="8" as="geometry" />
        </mxCell>
        <mxCell id="nY_uiTRwyGMx2RZcLAmJ-76" value="+ printReceipt : void" style="text;strokeColor=none;fillColor=none;align=left;verticalAlign=top;spacingLeft=4;spacingRight=4;overflow=hidden;rotatable=0;points=[[0,0.5],[1,0.5]];portConstraint=eastwest;whiteSpace=wrap;html=1;" parent="nY_uiTRwyGMx2RZcLAmJ-73" vertex="1">
          <mxGeometry y="118" width="170" height="42" as="geometry" />
        </mxCell>
        <mxCell id="nY_uiTRwyGMx2RZcLAmJ-77" style="edgeStyle=orthogonalEdgeStyle;rounded=0;orthogonalLoop=1;jettySize=auto;html=1;entryX=1;entryY=0.5;entryDx=0;entryDy=0;endArrow=diamond;endFill=1;strokeWidth=2;" parent="WIyWlLk6GJQsqaUBKTNV-1" source="nY_uiTRwyGMx2RZcLAmJ-74" target="nY_uiTRwyGMx2RZcLAmJ-70" edge="1">
          <mxGeometry relative="1" as="geometry" />
        </mxCell>
        <mxCell id="nY_uiTRwyGMx2RZcLAmJ-78" value="RemortCustomer.RemoteCustomerOrderShippingDetails" style="swimlane;fontStyle=1;align=center;verticalAlign=top;childLayout=stackLayout;horizontal=1;startSize=40;horizontalStack=0;resizeParent=1;resizeParentMax=0;resizeLast=0;collapsible=1;marginBottom=0;whiteSpace=wrap;html=1;" parent="WIyWlLk6GJQsqaUBKTNV-1" vertex="1">
          <mxGeometry x="120" y="2060" width="250" height="240" as="geometry" />
        </mxCell>
        <mxCell id="nY_uiTRwyGMx2RZcLAmJ-79" value="- orderID :String;&lt;br&gt;- name : String;&lt;br&gt;- address : String&lt;br&gt;-phoneNumber : String&lt;br&gt;-dateAndTime : Date &amp;amp; Time" style="text;strokeColor=none;fillColor=none;align=left;verticalAlign=top;spacingLeft=4;spacingRight=4;overflow=hidden;rotatable=0;points=[[0,0.5],[1,0.5]];portConstraint=eastwest;whiteSpace=wrap;html=1;" parent="nY_uiTRwyGMx2RZcLAmJ-78" vertex="1">
          <mxGeometry y="40" width="250" height="100" as="geometry" />
        </mxCell>
        <mxCell id="nY_uiTRwyGMx2RZcLAmJ-80" value="" style="line;strokeWidth=1;fillColor=none;align=left;verticalAlign=middle;spacingTop=-1;spacingLeft=3;spacingRight=3;rotatable=0;labelPosition=right;points=[];portConstraint=eastwest;strokeColor=inherit;" parent="nY_uiTRwyGMx2RZcLAmJ-78" vertex="1">
          <mxGeometry y="140" width="250" height="8" as="geometry" />
        </mxCell>
        <mxCell id="nY_uiTRwyGMx2RZcLAmJ-81" value="+addCustomerOrderShippingDetails() : void&lt;br&gt;+changeQuantity() : void&lt;br&gt;+placeOrder() : void" style="text;strokeColor=none;fillColor=none;align=left;verticalAlign=top;spacingLeft=4;spacingRight=4;overflow=hidden;rotatable=0;points=[[0,0.5],[1,0.5]];portConstraint=eastwest;whiteSpace=wrap;html=1;" parent="nY_uiTRwyGMx2RZcLAmJ-78" vertex="1">
          <mxGeometry y="148" width="250" height="92" as="geometry" />
        </mxCell>
        <mxCell id="nY_uiTRwyGMx2RZcLAmJ-82" value="RemoteCustomerOrderMedicineDetails" style="swimlane;fontStyle=1;align=center;verticalAlign=top;childLayout=stackLayout;horizontal=1;startSize=40;horizontalStack=0;resizeParent=1;resizeParentMax=0;resizeLast=0;collapsible=1;marginBottom=0;whiteSpace=wrap;html=1;" parent="WIyWlLk6GJQsqaUBKTNV-1" vertex="1">
          <mxGeometry x="500" y="2060" width="250" height="160" as="geometry" />
        </mxCell>
        <mxCell id="nY_uiTRwyGMx2RZcLAmJ-83" value="-sequenceID : String&lt;br&gt;-medicineID : String&lt;br&gt;-medicineName : String&lt;br&gt;-price : Double" style="text;strokeColor=none;fillColor=none;align=left;verticalAlign=top;spacingLeft=4;spacingRight=4;overflow=hidden;rotatable=0;points=[[0,0.5],[1,0.5]];portConstraint=eastwest;whiteSpace=wrap;html=1;" parent="nY_uiTRwyGMx2RZcLAmJ-82" vertex="1">
          <mxGeometry y="40" width="250" height="70" as="geometry" />
        </mxCell>
        <mxCell id="nY_uiTRwyGMx2RZcLAmJ-84" value="" style="line;strokeWidth=1;fillColor=none;align=left;verticalAlign=middle;spacingTop=-1;spacingLeft=3;spacingRight=3;rotatable=0;labelPosition=right;points=[];portConstraint=eastwest;strokeColor=inherit;" parent="nY_uiTRwyGMx2RZcLAmJ-82" vertex="1">
          <mxGeometry y="110" width="250" height="8" as="geometry" />
        </mxCell>
        <mxCell id="nY_uiTRwyGMx2RZcLAmJ-85" value="+loadMedicine() : void&lt;br&gt;+addMedicine() : void" style="text;strokeColor=none;fillColor=none;align=left;verticalAlign=top;spacingLeft=4;spacingRight=4;overflow=hidden;rotatable=0;points=[[0,0.5],[1,0.5]];portConstraint=eastwest;whiteSpace=wrap;html=1;" parent="nY_uiTRwyGMx2RZcLAmJ-82" vertex="1">
          <mxGeometry y="118" width="250" height="42" as="geometry" />
        </mxCell>
        <mxCell id="nY_uiTRwyGMx2RZcLAmJ-86" style="edgeStyle=orthogonalEdgeStyle;rounded=0;orthogonalLoop=1;jettySize=auto;html=1;entryX=1;entryY=0.5;entryDx=0;entryDy=0;strokeWidth=2;endArrow=none;endFill=0;startArrow=diamond;startFill=1;" parent="WIyWlLk6GJQsqaUBKTNV-1" source="nY_uiTRwyGMx2RZcLAmJ-83" target="nY_uiTRwyGMx2RZcLAmJ-79" edge="1">
          <mxGeometry relative="1" as="geometry" />
        </mxCell>
        <mxCell id="nOhA6pioe5P1SblprpBj-5" value="RemoteCustomerOrderPayment" style="swimlane;fontStyle=1;align=center;verticalAlign=top;childLayout=stackLayout;horizontal=1;startSize=40;horizontalStack=0;resizeParent=1;resizeParentMax=0;resizeLast=0;collapsible=1;marginBottom=0;whiteSpace=wrap;html=1;" parent="WIyWlLk6GJQsqaUBKTNV-1" vertex="1">
          <mxGeometry x="890" y="2050" width="220" height="270" as="geometry" />
        </mxCell>
        <mxCell id="nOhA6pioe5P1SblprpBj-6" value="- remoteCustomerID: String&lt;br style=&quot;border-color: var(--border-color);&quot;&gt;- name : String&lt;br style=&quot;border-color: var(--border-color);&quot;&gt;- address : String&lt;br style=&quot;border-color: var(--border-color);&quot;&gt;-phoneNumber : String&lt;br style=&quot;border-color: var(--border-color);&quot;&gt;-dateAndTime : Date &amp;amp; Time&lt;br&gt;-medicineID : String&lt;br style=&quot;border-color: var(--border-color);&quot;&gt;-medicineName : String&lt;br style=&quot;border-color: var(--border-color);&quot;&gt;-price : Double" style="text;strokeColor=none;fillColor=none;align=left;verticalAlign=top;spacingLeft=4;spacingRight=4;overflow=hidden;rotatable=0;points=[[0,0.5],[1,0.5]];portConstraint=eastwest;whiteSpace=wrap;html=1;" parent="nOhA6pioe5P1SblprpBj-5" vertex="1">
          <mxGeometry y="40" width="220" height="120" as="geometry" />
        </mxCell>
        <mxCell id="nOhA6pioe5P1SblprpBj-7" value="" style="line;strokeWidth=1;fillColor=none;align=left;verticalAlign=middle;spacingTop=-1;spacingLeft=3;spacingRight=3;rotatable=0;labelPosition=right;points=[];portConstraint=eastwest;strokeColor=inherit;" parent="nOhA6pioe5P1SblprpBj-5" vertex="1">
          <mxGeometry y="160" width="220" height="40" as="geometry" />
        </mxCell>
        <mxCell id="nOhA6pioe5P1SblprpBj-8" value="+generateInvoice() : void&lt;br&gt;+viewOrderList() : void&lt;br&gt;+loadOrderInformation() : void&lt;br&gt;+payment() : void" style="text;html=1;align=left;verticalAlign=middle;resizable=0;points=[];autosize=1;strokeColor=none;fillColor=none;" parent="nOhA6pioe5P1SblprpBj-5" vertex="1">
          <mxGeometry y="200" width="220" height="70" as="geometry" />
        </mxCell>
        <mxCell id="nOhA6pioe5P1SblprpBj-9" value="ReportGenerater" style="swimlane;fontStyle=1;align=center;verticalAlign=top;childLayout=stackLayout;horizontal=1;startSize=40;horizontalStack=0;resizeParent=1;resizeParentMax=0;resizeLast=0;collapsible=1;marginBottom=0;whiteSpace=wrap;html=1;" parent="WIyWlLk6GJQsqaUBKTNV-1" vertex="1">
          <mxGeometry x="1241" y="2060" width="250" height="160" as="geometry" />
        </mxCell>
        <mxCell id="nOhA6pioe5P1SblprpBj-10" value="-ideal: String&lt;br&gt;" style="text;strokeColor=none;fillColor=none;align=left;verticalAlign=top;spacingLeft=4;spacingRight=4;overflow=hidden;rotatable=0;points=[[0,0.5],[1,0.5]];portConstraint=eastwest;whiteSpace=wrap;html=1;" parent="nOhA6pioe5P1SblprpBj-9" vertex="1">
          <mxGeometry y="40" width="250" height="30" as="geometry" />
        </mxCell>
        <mxCell id="nOhA6pioe5P1SblprpBj-11" value="" style="line;strokeWidth=1;fillColor=none;align=left;verticalAlign=middle;spacingTop=-1;spacingLeft=3;spacingRight=3;rotatable=0;labelPosition=right;points=[];portConstraint=eastwest;strokeColor=inherit;" parent="nOhA6pioe5P1SblprpBj-9" vertex="1">
          <mxGeometry y="70" width="250" height="8" as="geometry" />
        </mxCell>
        <mxCell id="nOhA6pioe5P1SblprpBj-12" value="+remoteCustomerSalesReport() : void&lt;br&gt;+directCustomerSalesReport() : void&lt;br&gt;+medicinePurchaseReport() : void&lt;br&gt;+summeryReport() : void" style="text;strokeColor=none;fillColor=none;align=left;verticalAlign=top;spacingLeft=4;spacingRight=4;overflow=hidden;rotatable=0;points=[[0,0.5],[1,0.5]];portConstraint=eastwest;whiteSpace=wrap;html=1;" parent="nOhA6pioe5P1SblprpBj-9" vertex="1">
          <mxGeometry y="78" width="250" height="82" as="geometry" />
        </mxCell>
        <mxCell id="nOhA6pioe5P1SblprpBj-46" style="edgeStyle=orthogonalEdgeStyle;rounded=0;orthogonalLoop=1;jettySize=auto;html=1;exitX=0.5;exitY=0;exitDx=0;exitDy=0;entryX=0.5;entryY=0;entryDx=0;entryDy=0;endArrow=none;endFill=0;" parent="WIyWlLk6GJQsqaUBKTNV-1" source="nOhA6pioe5P1SblprpBj-24" target="nOhA6pioe5P1SblprpBj-30" edge="1">
          <mxGeometry relative="1" as="geometry" />
        </mxCell>
        <mxCell id="nOhA6pioe5P1SblprpBj-24" value="Admin" style="swimlane;fontStyle=1;align=center;verticalAlign=top;childLayout=stackLayout;horizontal=1;startSize=40;horizontalStack=0;resizeParent=1;resizeParentMax=0;resizeLast=0;collapsible=1;marginBottom=0;whiteSpace=wrap;html=1;" parent="WIyWlLk6GJQsqaUBKTNV-1" vertex="1">
          <mxGeometry x="145" y="1660" width="170" height="80" as="geometry" />
        </mxCell>
        <mxCell id="nOhA6pioe5P1SblprpBj-26" value="" style="line;strokeWidth=1;fillColor=none;align=left;verticalAlign=middle;spacingTop=-1;spacingLeft=3;spacingRight=3;rotatable=0;labelPosition=right;points=[];portConstraint=eastwest;strokeColor=inherit;" parent="nOhA6pioe5P1SblprpBj-24" vertex="1">
          <mxGeometry y="40" width="170" height="40" as="geometry" />
        </mxCell>
        <mxCell id="nOhA6pioe5P1SblprpBj-30" value="Staff" style="swimlane;fontStyle=1;align=center;verticalAlign=top;childLayout=stackLayout;horizontal=1;startSize=40;horizontalStack=0;resizeParent=1;resizeParentMax=0;resizeLast=0;collapsible=1;marginBottom=0;whiteSpace=wrap;html=1;" parent="WIyWlLk6GJQsqaUBKTNV-1" vertex="1">
          <mxGeometry x="385" y="1660" width="170" height="110" as="geometry" />
        </mxCell>
        <mxCell id="nOhA6pioe5P1SblprpBj-48" value="-position: String" style="text;html=1;align=left;verticalAlign=middle;resizable=0;points=[];autosize=1;strokeColor=none;fillColor=none;" parent="nOhA6pioe5P1SblprpBj-30" vertex="1">
          <mxGeometry y="40" width="170" height="30" as="geometry" />
        </mxCell>
        <mxCell id="nOhA6pioe5P1SblprpBj-31" value="" style="line;strokeWidth=1;fillColor=none;align=left;verticalAlign=middle;spacingTop=-1;spacingLeft=3;spacingRight=3;rotatable=0;labelPosition=right;points=[];portConstraint=eastwest;strokeColor=inherit;" parent="nOhA6pioe5P1SblprpBj-30" vertex="1">
          <mxGeometry y="70" width="170" height="40" as="geometry" />
        </mxCell>
        <mxCell id="nOhA6pioe5P1SblprpBj-45" style="rounded=0;orthogonalLoop=1;jettySize=auto;html=1;exitX=0.992;exitY=0.08;exitDx=0;exitDy=0;dashed=1;endArrow=block;endFill=0;entryX=0.539;entryY=1.063;entryDx=0;entryDy=0;entryPerimeter=0;exitPerimeter=0;" parent="WIyWlLk6GJQsqaUBKTNV-1" source="nOhA6pioe5P1SblprpBj-40" target="nY_uiTRwyGMx2RZcLAmJ-4" edge="1">
          <mxGeometry relative="1" as="geometry">
            <mxPoint x="340" y="1260" as="targetPoint" />
            <Array as="points">
              <mxPoint x="637" y="1383" />
            </Array>
          </mxGeometry>
        </mxCell>
        <mxCell id="nOhA6pioe5P1SblprpBj-47" style="rounded=0;orthogonalLoop=1;jettySize=auto;html=1;exitX=0.5;exitY=1;exitDx=0;exitDy=0;startArrow=block;startFill=0;endArrow=none;endFill=0;" parent="WIyWlLk6GJQsqaUBKTNV-1" source="nOhA6pioe5P1SblprpBj-40" edge="1">
          <mxGeometry relative="1" as="geometry">
            <mxPoint x="339.9411764705883" y="1640" as="targetPoint" />
          </mxGeometry>
        </mxCell>
        <mxCell id="nOhA6pioe5P1SblprpBj-40" value="UserInfo" style="swimlane;fontStyle=1;align=center;verticalAlign=top;childLayout=stackLayout;horizontal=1;startSize=40;horizontalStack=0;resizeParent=1;resizeParentMax=0;resizeLast=0;collapsible=1;marginBottom=0;whiteSpace=wrap;html=1;" parent="WIyWlLk6GJQsqaUBKTNV-1" vertex="1">
          <mxGeometry x="255" y="1364" width="170" height="242" as="geometry" />
        </mxCell>
        <mxCell id="nOhA6pioe5P1SblprpBj-41" value="-userID: String&lt;br style=&quot;border-color: var(--border-color);&quot;&gt;&lt;span style=&quot;&quot;&gt;-name : String&lt;/span&gt;&lt;br style=&quot;border-color: var(--border-color);&quot;&gt;&lt;span style=&quot;&quot;&gt;-phoneNumber: String&lt;/span&gt;&lt;br style=&quot;border-color: var(--border-color);&quot;&gt;&lt;span style=&quot;&quot;&gt;-email: String&lt;/span&gt;&lt;br style=&quot;border-color: var(--border-color);&quot;&gt;&lt;span style=&quot;&quot;&gt;-date:Date&lt;/span&gt;&lt;br style=&quot;border-color: var(--border-color);&quot;&gt;&lt;span style=&quot;&quot;&gt;-salary : Double&lt;/span&gt;&lt;br style=&quot;border-color: var(--border-color);&quot;&gt;&lt;span style=&quot;&quot;&gt;- password : String&lt;/span&gt;" style="text;html=1;align=left;verticalAlign=middle;resizable=0;points=[];autosize=1;strokeColor=none;fillColor=none;" parent="nOhA6pioe5P1SblprpBj-40" vertex="1">
          <mxGeometry y="40" width="170" height="110" as="geometry" />
        </mxCell>
        <mxCell id="nOhA6pioe5P1SblprpBj-42" value="" style="line;strokeWidth=1;fillColor=none;align=left;verticalAlign=middle;spacingTop=-1;spacingLeft=3;spacingRight=3;rotatable=0;labelPosition=right;points=[];portConstraint=eastwest;strokeColor=inherit;" parent="nOhA6pioe5P1SblprpBj-40" vertex="1">
          <mxGeometry y="150" width="170" height="40" as="geometry" />
        </mxCell>
        <mxCell id="nOhA6pioe5P1SblprpBj-43" value="&lt;b&gt;+addUser() : void&lt;br&gt;+editUser() : void&lt;br&gt;+deleteUser() : void&lt;/b&gt;" style="text;strokeColor=none;fillColor=none;align=left;verticalAlign=top;spacingLeft=4;spacingRight=4;overflow=hidden;rotatable=0;points=[[0,0.5],[1,0.5]];portConstraint=eastwest;whiteSpace=wrap;html=1;" parent="nOhA6pioe5P1SblprpBj-40" vertex="1">
          <mxGeometry y="190" width="170" height="52" as="geometry" />
        </mxCell>
        <mxCell id="nOhA6pioe5P1SblprpBj-49" value="Email" style="swimlane;fontStyle=1;align=center;verticalAlign=top;childLayout=stackLayout;horizontal=1;startSize=40;horizontalStack=0;resizeParent=1;resizeParentMax=0;resizeLast=0;collapsible=1;marginBottom=0;whiteSpace=wrap;html=1;" parent="WIyWlLk6GJQsqaUBKTNV-1" vertex="1">
          <mxGeometry x="1210" y="1470" width="170" height="90" as="geometry" />
        </mxCell>
        <mxCell id="nOhA6pioe5P1SblprpBj-51" value="" style="line;strokeWidth=1;fillColor=none;align=left;verticalAlign=middle;spacingTop=-1;spacingLeft=3;spacingRight=3;rotatable=0;labelPosition=right;points=[];portConstraint=eastwest;strokeColor=inherit;" parent="nOhA6pioe5P1SblprpBj-49" vertex="1">
          <mxGeometry y="40" width="170" height="8" as="geometry" />
        </mxCell>
        <mxCell id="nOhA6pioe5P1SblprpBj-52" value="+ viewEmail: void" style="text;strokeColor=none;fillColor=none;align=left;verticalAlign=top;spacingLeft=4;spacingRight=4;overflow=hidden;rotatable=0;points=[[0,0.5],[1,0.5]];portConstraint=eastwest;whiteSpace=wrap;html=1;" parent="nOhA6pioe5P1SblprpBj-49" vertex="1">
          <mxGeometry y="48" width="170" height="42" as="geometry" />
        </mxCell>
        <mxCell id="nOhA6pioe5P1SblprpBj-53" value="1" style="text;html=1;strokeColor=none;fillColor=none;align=center;verticalAlign=middle;whiteSpace=wrap;rounded=0;" parent="WIyWlLk6GJQsqaUBKTNV-1" vertex="1">
          <mxGeometry x="350" y="2125" width="60" height="30" as="geometry" />
        </mxCell>
        <mxCell id="nOhA6pioe5P1SblprpBj-54" value="1..*" style="text;html=1;strokeColor=none;fillColor=none;align=center;verticalAlign=middle;whiteSpace=wrap;rounded=0;" parent="WIyWlLk6GJQsqaUBKTNV-1" vertex="1">
          <mxGeometry x="448" y="2110" width="60" height="30" as="geometry" />
        </mxCell>
        <mxCell id="nOhA6pioe5P1SblprpBj-55" value="1" style="text;html=1;strokeColor=none;fillColor=none;align=center;verticalAlign=middle;whiteSpace=wrap;rounded=0;" parent="WIyWlLk6GJQsqaUBKTNV-1" vertex="1">
          <mxGeometry x="300" y="1885" width="60" height="30" as="geometry" />
        </mxCell>
        <mxCell id="nOhA6pioe5P1SblprpBj-57" value="1" style="text;html=1;strokeColor=none;fillColor=none;align=center;verticalAlign=middle;whiteSpace=wrap;rounded=0;" parent="WIyWlLk6GJQsqaUBKTNV-1" vertex="1">
          <mxGeometry x="383" y="1855" width="60" height="30" as="geometry" />
        </mxCell>
        <mxCell id="nOhA6pioe5P1SblprpBj-58" value="1" style="text;html=1;strokeColor=none;fillColor=none;align=center;verticalAlign=middle;whiteSpace=wrap;rounded=0;" parent="WIyWlLk6GJQsqaUBKTNV-1" vertex="1">
          <mxGeometry x="820" y="1795" width="60" height="30" as="geometry" />
        </mxCell>
        <mxCell id="nOhA6pioe5P1SblprpBj-59" value="1" style="text;html=1;strokeColor=none;fillColor=none;align=center;verticalAlign=middle;whiteSpace=wrap;rounded=0;" parent="WIyWlLk6GJQsqaUBKTNV-1" vertex="1">
          <mxGeometry x="1024" y="1890" width="60" height="30" as="geometry" />
        </mxCell>
        <mxCell id="nOhA6pioe5P1SblprpBj-60" value="1" style="text;html=1;strokeColor=none;fillColor=none;align=center;verticalAlign=middle;whiteSpace=wrap;rounded=0;" parent="WIyWlLk6GJQsqaUBKTNV-1" vertex="1">
          <mxGeometry x="990" y="1582" width="60" height="30" as="geometry" />
        </mxCell>
        <mxCell id="nOhA6pioe5P1SblprpBj-61" value="1" style="text;html=1;strokeColor=none;fillColor=none;align=center;verticalAlign=middle;whiteSpace=wrap;rounded=0;" parent="WIyWlLk6GJQsqaUBKTNV-1" vertex="1">
          <mxGeometry x="1018" y="1440" width="60" height="30" as="geometry" />
        </mxCell>
        <mxCell id="D0_0YpxFWLuaAPhoUnzt-0" value="Dashboard" style="swimlane;fontStyle=1;align=center;verticalAlign=top;childLayout=stackLayout;horizontal=1;startSize=40;horizontalStack=0;resizeParent=1;resizeParentMax=0;resizeLast=0;collapsible=1;marginBottom=0;whiteSpace=wrap;html=1;" vertex="1" parent="WIyWlLk6GJQsqaUBKTNV-1">
          <mxGeometry x="1310" y="1625" width="290" height="190" as="geometry" />
        </mxCell>
        <mxCell id="D0_0YpxFWLuaAPhoUnzt-2" value="" style="line;strokeWidth=1;fillColor=none;align=left;verticalAlign=middle;spacingTop=-1;spacingLeft=3;spacingRight=3;rotatable=0;labelPosition=right;points=[];portConstraint=eastwest;strokeColor=inherit;" vertex="1" parent="D0_0YpxFWLuaAPhoUnzt-0">
          <mxGeometry y="40" width="290" height="50" as="geometry" />
        </mxCell>
        <mxCell id="D0_0YpxFWLuaAPhoUnzt-3" value="&amp;nbsp;+ IncomeChart() : void&lt;br&gt;&amp;nbsp;+&amp;nbsp;CustomerCart() : void&lt;br&gt;&amp;nbsp;+&amp;nbsp;CoustomerNumber() : void&lt;br&gt;&amp;nbsp;+&amp;nbsp;MedicineOrder() :void&lt;br&gt;&amp;nbsp;+&amp;nbsp;TodayIncome() : void&lt;br&gt;&amp;nbsp;+&amp;nbsp;TotalIncome() : void" style="text;html=1;align=left;verticalAlign=middle;resizable=0;points=[];autosize=1;strokeColor=none;fillColor=none;" vertex="1" parent="D0_0YpxFWLuaAPhoUnzt-0">
          <mxGeometry y="90" width="290" height="100" as="geometry" />
        </mxCell>
      </root>
    </mxGraphModel>
  </diagram>
</mxfile>
